<svg width="16" height="17" viewBox="0 0 16 17" fill="none" xmlns="http://www.w3.org/2000/svg">
<g clip-path="url(#clip0_228_91)">
<path d="M8.00001 11.2732C9.47277 11.2732 10.6667 10.0793 10.6667 8.60658C10.6667 7.13382 9.47277 5.93991 8.00001 5.93991C6.52725 5.93991 5.33334 7.13382 5.33334 8.60658C5.33334 10.0793 6.52725 11.2732 8.00001 11.2732Z" stroke="#3772FF" stroke-width="2" stroke-linecap="round" stroke-linejoin="round"/>
<path d="M10.6667 5.93989V9.27323C10.6667 9.80366 10.8774 10.3124 11.2524 10.6874C11.6275 11.0625 12.1362 11.2732 12.6667 11.2732C13.1971 11.2732 13.7058 11.0625 14.0809 10.6874C14.4559 10.3124 14.6667 9.80366 14.6667 9.27323V8.60656C14.6666 7.10191 14.1575 5.64155 13.2222 4.46291C12.2869 3.28428 10.9804 2.45671 9.51508 2.11476C8.0498 1.77281 6.51194 1.93659 5.15155 2.57947C3.79116 3.22236 2.68825 4.30653 2.02216 5.65571C1.35606 7.00489 1.16596 8.53972 1.48276 10.0106C1.79957 11.4816 2.60464 12.802 3.76707 13.7574C4.92951 14.7128 6.38094 15.2468 7.88537 15.2727C9.38979 15.2985 10.8587 14.8147 12.0533 13.8999" stroke="#3772FF" stroke-width="2" stroke-linecap="round" stroke-linejoin="round"/>
</g>
<defs>
<clipPath id="clip0_228_91">
<rect width="16" height="16" fill="white" transform="translate(0 0.606567)"/>
</clipPath>
</defs>
</svg>
