<svg width="16" height="17" viewBox="0 0 16 17" fill="none" xmlns="http://www.w3.org/2000/svg">
<g clip-path="url(#clip0_228_98)">
<path d="M12.6667 7.93991H3.33333C2.59695 7.93991 2 8.53686 2 9.27324V13.9399C2 14.6763 2.59695 15.2732 3.33333 15.2732H12.6667C13.403 15.2732 14 14.6763 14 13.9399V9.27324C14 8.53686 13.403 7.93991 12.6667 7.93991Z" stroke="#3772FF" stroke-width="2" stroke-linecap="round" stroke-linejoin="round"/>
<path d="M4.66666 7.93991V5.27324C4.66666 4.38919 5.01785 3.54134 5.64297 2.91622C6.26809 2.2911 7.11593 1.93991 7.99999 1.93991C8.88404 1.93991 9.73189 2.2911 10.357 2.91622C10.9821 3.54134 11.3333 4.38919 11.3333 5.27324V7.93991" stroke="#3772FF" stroke-width="2" stroke-linecap="round" stroke-linejoin="round"/>
</g>
<defs>
<clipPath id="clip0_228_98">
<rect width="16" height="16" fill="white" transform="translate(0 0.606567)"/>
</clipPath>
</defs>
</svg>
